<svg width="537" height="101" viewBox="0 0 537 101" fill="none" xmlns="http://www.w3.org/2000/svg">
<path d="M66.9085 0C64.226 0 61.9131 1.89623 61.3732 4.53821C54.8436 36.4892 40.1416 57.7228 27.17 70.9546C20.6712 77.5839 14.5955 82.2143 10.1843 85.1678C7.97987 86.6438 6.19556 87.698 4.98811 88.3711C4.38455 88.7075 3.92573 88.9484 3.6313 89.0988C3.48411 89.174 3.37808 89.2266 3.31568 89.2571L3.2502 89.2889C0.430584 90.6201 -0.786526 93.9958 0.531811 96.8353C1.85197 99.6787 5.21469 100.908 8.04266 99.5803L5.65229 94.4318C8.04266 99.5803 8.0522 99.5758 8.05513 99.5744L8.07198 99.5664L8.11869 99.5442L8.26336 99.474C8.38227 99.4158 8.54571 99.3346 8.75115 99.2296C9.16199 99.0197 9.74108 98.7148 10.4682 98.3095C11.9219 97.4991 13.9697 96.2859 16.4485 94.6262C21.4037 91.3085 28.0992 86.1946 35.2191 78.9318C48.8487 65.0287 63.9936 43.2856 71.4505 11.3636H465.035C472.492 43.2856 487.637 65.0287 501.266 78.9318C508.386 86.1946 515.082 91.3085 520.037 94.6262C522.516 96.2859 524.564 97.4991 526.017 98.3095C526.744 98.7148 527.323 99.0197 527.734 99.2296C527.94 99.3346 528.103 99.4158 528.222 99.474L528.367 99.5442L528.414 99.5664L528.43 99.5744L528.437 99.5776C528.44 99.579 528.443 99.5803 530.833 94.4318L528.443 99.5803C531.271 100.908 534.633 99.6787 535.954 96.8353C537.273 93.9934 536.053 90.6144 533.228 89.2855L533.224 89.2834L533.17 89.2571C533.107 89.2266 533.001 89.174 532.854 89.0988C532.56 88.9484 532.101 88.7075 531.497 88.3711C530.29 87.698 528.506 86.6438 526.301 85.1678C521.89 82.2143 515.814 77.5839 509.315 70.9546C496.344 57.7228 481.642 36.4892 475.112 4.53821C474.572 1.89623 472.259 0 469.577 0H66.9085Z" fill="#18316F"/>
<path fill-rule="evenodd" clip-rule="evenodd" d="M143.179 37.3714C128.885 37.3714 117.298 49.0222 117.298 63.3942C117.298 77.7661 128.885 89.4169 143.179 89.4169C157.473 89.4169 169.061 77.7661 169.061 63.3942C169.061 49.0222 157.473 37.3714 143.179 37.3714ZM105.996 63.3942C105.996 42.7463 122.644 26.0078 143.179 26.0078C163.715 26.0078 180.363 42.7463 180.363 63.3942C180.363 84.0421 163.715 100.781 143.179 100.781C122.644 100.781 105.996 84.0421 105.996 63.3942Z" fill="#E75852"/>
<path fill-rule="evenodd" clip-rule="evenodd" d="M197.207 31.6896C197.207 28.5516 199.737 26.0078 202.858 26.0078C236.607 26.0078 264.001 53.5517 264.001 87.4851C264.001 90.6231 261.471 93.1669 258.35 93.1669C255.229 93.1669 252.699 90.6231 252.699 87.4851C252.699 59.8276 230.365 37.3714 202.858 37.3714C199.737 37.3714 197.207 34.8276 197.207 31.6896Z" fill="#1F1E1B"/>
<path fill-rule="evenodd" clip-rule="evenodd" d="M318.933 37.3714C304.639 37.3714 293.052 49.0222 293.052 63.3942C293.052 77.7661 304.639 89.4169 318.933 89.4169C333.227 89.4169 344.815 77.7661 344.815 63.3942C344.815 49.0222 333.227 37.3714 318.933 37.3714ZM281.75 63.3942C281.75 42.7463 298.397 26.0078 318.933 26.0078C339.469 26.0078 356.116 42.7463 356.116 63.3942C356.116 84.0421 339.469 100.781 318.933 100.781C298.397 100.781 281.75 84.0421 281.75 63.3942Z" fill="#E75852"/>
<path fill-rule="evenodd" clip-rule="evenodd" d="M372.828 31.6896C372.828 28.5516 375.358 26.0078 378.479 26.0078C412.228 26.0078 439.622 53.5517 439.622 87.4851C439.622 90.6231 437.092 93.1669 433.971 93.1669C430.85 93.1669 428.32 90.6231 428.32 87.4851C428.32 59.8276 405.986 37.3714 378.479 37.3714C375.358 37.3714 372.828 34.8276 372.828 31.6896Z" fill="#1F1E1B"/>
</svg>
