<svg width="538" height="163" viewBox="0 0 538 163" fill="none" xmlns="http://www.w3.org/2000/svg">
<path d="M67.514 0C64.8315 0 62.5186 1.89623 61.9787 4.53821C55.4491 36.4892 40.7471 57.7228 27.7755 70.9546C21.2766 77.5839 15.2009 82.2143 10.7897 85.1678C8.58534 86.6438 6.80103 87.698 5.59357 88.3711C4.99002 88.7075 4.5312 88.9484 4.23677 89.0988C4.08958 89.174 3.98355 89.2266 3.92115 89.2571L3.85566 89.2889C1.03605 90.6201 -0.181057 93.9958 1.13728 96.8353C2.45744 99.6787 5.82016 100.908 8.64813 99.5803L6.25776 94.4318C8.64813 99.5803 8.65766 99.5758 8.6606 99.5744L8.67745 99.5664L8.72416 99.5442L8.86883 99.474C8.98774 99.4158 9.15118 99.3346 9.35662 99.2296C9.76746 99.0197 10.3466 98.7148 11.0736 98.3095C12.5274 97.4991 14.5751 96.2859 17.054 94.6262C22.0092 91.3085 28.7046 86.1946 35.8245 78.9318C49.4542 65.0287 64.599 43.2856 72.056 11.3636H465.64C473.097 43.2856 488.242 65.0287 501.872 78.9318C508.992 86.1946 515.687 91.3085 520.642 94.6262C523.121 96.2859 525.169 97.4991 526.623 98.3095C527.35 98.7148 527.929 99.0197 528.34 99.2296C528.545 99.3346 528.709 99.4158 528.828 99.474L528.972 99.5442L529.019 99.5664L529.036 99.5744L529.043 99.5776C529.046 99.579 529.048 99.5803 531.439 94.4318L529.048 99.5803C531.876 100.908 535.239 99.6787 536.559 96.8353C537.879 93.9934 536.658 90.6144 533.834 89.2855L533.829 89.2834L533.775 89.2571C533.713 89.2266 533.607 89.174 533.46 89.0988C533.165 88.9484 532.706 88.7075 532.103 88.3711C530.895 87.698 529.111 86.6438 526.907 85.1678C522.495 82.2143 516.42 77.5839 509.921 70.9546C496.949 57.7228 482.247 36.4892 475.718 4.53821C475.178 1.89623 472.865 0 470.182 0H67.514Z" fill="#18316F"/>
<path fill-rule="evenodd" clip-rule="evenodd" d="M143.785 37.3714C129.491 37.3714 117.903 49.0222 117.903 63.3942C117.903 77.7661 129.491 89.4169 143.785 89.4169C158.079 89.4169 169.666 77.7661 169.666 63.3942C169.666 49.0222 158.079 37.3714 143.785 37.3714ZM106.602 63.3942C106.602 42.7463 123.249 26.0078 143.785 26.0078C164.32 26.0078 180.968 42.7463 180.968 63.3942C180.968 84.0421 164.32 100.781 143.785 100.781C123.249 100.781 106.602 84.0421 106.602 63.3942Z" fill="#E75852"/>
<path fill-rule="evenodd" clip-rule="evenodd" d="M197.812 31.6896C197.812 28.5516 200.343 26.0078 203.463 26.0078C237.212 26.0078 264.607 53.5517 264.607 87.4851C264.607 90.6231 262.077 93.1669 258.956 93.1669C255.835 93.1669 253.305 90.6231 253.305 87.4851C253.305 59.8276 230.971 37.3714 203.463 37.3714C200.343 37.3714 197.812 34.8276 197.812 31.6896Z" fill="#1F1E1B"/>
<path fill-rule="evenodd" clip-rule="evenodd" d="M319.539 37.3714C305.245 37.3714 293.657 49.0222 293.657 63.3942C293.657 77.7661 305.245 89.4169 319.539 89.4169C333.833 89.4169 345.42 77.7661 345.42 63.3942C345.42 49.0222 333.833 37.3714 319.539 37.3714ZM282.355 63.3942C282.355 42.7463 299.003 26.0078 319.539 26.0078C340.074 26.0078 356.722 42.7463 356.722 63.3942C356.722 84.0421 340.074 100.781 319.539 100.781C299.003 100.781 282.355 84.0421 282.355 63.3942Z" fill="#E75852"/>
<path fill-rule="evenodd" clip-rule="evenodd" d="M373.434 31.6896C373.434 28.5516 375.964 26.0078 379.085 26.0078C412.834 26.0078 440.228 53.5517 440.228 87.4851C440.228 90.6231 437.698 93.1669 434.577 93.1669C431.456 93.1669 428.926 90.6231 428.926 87.4851C428.926 59.8276 406.592 37.3714 379.085 37.3714C375.964 37.3714 373.434 34.8276 373.434 31.6896Z" fill="#1F1E1B"/>
<path fill-rule="evenodd" clip-rule="evenodd" d="M136.979 124.367C133.081 124.367 129.921 127.377 129.921 131.089C129.921 134.801 133.081 137.811 136.979 137.811C140.877 137.811 144.037 134.801 144.037 131.089C144.037 127.377 140.877 124.367 136.979 124.367ZM126 131.089C126 125.314 130.915 120.633 136.979 120.633C143.042 120.633 147.958 125.314 147.958 131.089C147.958 136.864 143.042 141.545 136.979 141.545C130.915 141.545 126 136.864 126 131.089Z" fill="#231815"/>
<path fill-rule="evenodd" clip-rule="evenodd" d="M159.688 123.658C159.688 122.565 160.544 121.679 161.601 121.679H166.5C167.557 121.679 168.414 122.565 168.414 123.658C168.414 124.751 167.557 125.636 166.5 125.636H163.515V158.387C163.515 159.48 162.658 160.366 161.601 160.366C160.544 160.366 159.688 159.48 159.688 158.387V123.658Z" fill="#231815"/>
<path fill-rule="evenodd" clip-rule="evenodd" d="M137.506 147.818C138.538 147.818 139.375 148.633 139.375 149.637V156.729H150.497C151.529 156.729 152.366 157.543 152.366 158.547C152.366 159.551 151.529 160.366 150.497 160.366H137.506C136.474 160.366 135.637 159.551 135.637 158.547V149.637C135.637 148.633 136.474 147.818 137.506 147.818Z" fill="#231815"/>
<path fill-rule="evenodd" clip-rule="evenodd" d="M121 158.797C121 157.931 121.902 157.229 123.014 157.229H132.579C133.691 157.229 134.593 157.931 134.593 158.797C134.593 159.663 133.691 160.365 132.579 160.365H123.014C121.902 160.365 121 159.663 121 158.797Z" fill="#231815"/>
<path fill-rule="evenodd" clip-rule="evenodd" d="M311.979 124.367C308.081 124.367 304.921 127.377 304.921 131.089C304.921 134.801 308.081 137.811 311.979 137.811C315.877 137.811 319.037 134.801 319.037 131.089C319.037 127.377 315.877 124.367 311.979 124.367ZM301 131.089C301 125.314 305.915 120.633 311.979 120.633C318.042 120.633 322.958 125.314 322.958 131.089C322.958 136.864 318.042 141.545 311.979 141.545C305.915 141.545 301 136.864 301 131.089Z" fill="#231815"/>
<path fill-rule="evenodd" clip-rule="evenodd" d="M334.688 123.658C334.688 122.565 335.544 121.679 336.601 121.679H341.5C342.557 121.679 343.414 122.565 343.414 123.658C343.414 124.751 342.557 125.636 341.5 125.636H338.515V158.387C338.515 159.48 337.658 160.366 336.601 160.366C335.544 160.366 334.688 159.48 334.688 158.387V123.658Z" fill="#231815"/>
<path fill-rule="evenodd" clip-rule="evenodd" d="M312.506 147.818C313.538 147.818 314.375 148.633 314.375 149.637V156.729H325.497C326.529 156.729 327.366 157.543 327.366 158.547C327.366 159.551 326.529 160.366 325.497 160.366H312.506C311.474 160.366 310.637 159.551 310.637 158.547V149.637C310.637 148.633 311.474 147.818 312.506 147.818Z" fill="#231815"/>
<path fill-rule="evenodd" clip-rule="evenodd" d="M296 158.797C296 157.931 296.902 157.229 298.014 157.229H307.579C308.691 157.229 309.593 157.931 309.593 158.797C309.593 159.663 308.691 160.365 307.579 160.365H298.014C296.902 160.365 296 159.663 296 158.797Z" fill="#231815"/>
<path fill-rule="evenodd" clip-rule="evenodd" d="M216.332 122.534C216.332 121.484 217.206 120.633 218.284 120.633H250.976C252.054 120.633 252.928 121.484 252.928 122.534V129.188C252.928 130.238 252.054 131.089 250.976 131.089C249.898 131.089 249.025 130.238 249.025 129.188V124.435H218.284C217.206 124.435 216.332 123.584 216.332 122.534Z" fill="#231815"/>
<path fill-rule="evenodd" clip-rule="evenodd" d="M211.105 135.271C211.105 134.116 211.969 133.18 213.034 133.18H255.183C256.248 133.18 257.112 134.116 257.112 135.271C257.112 136.426 256.248 137.362 255.183 137.362H213.034C211.969 137.362 211.105 136.426 211.105 135.271Z" fill="#231815"/>
<path fill-rule="evenodd" clip-rule="evenodd" d="M216.332 142.434C216.332 141.365 217.206 140.499 218.284 140.499H250.976C252.054 140.499 252.928 141.365 252.928 142.434V150.849C252.928 151.918 252.054 152.784 250.976 152.784H220.236V158.587H250.976C252.054 158.587 252.928 159.454 252.928 160.522C252.928 161.591 252.054 162.457 250.976 162.457H218.284C217.206 162.457 216.332 161.591 216.332 160.522V150.849C216.332 149.781 217.206 148.915 218.284 148.915H249.025V144.368H218.284C217.206 144.368 216.332 143.502 216.332 142.434Z" fill="#231815"/>
<path fill-rule="evenodd" clip-rule="evenodd" d="M387.227 122.534C387.227 121.484 388.1 120.633 389.178 120.633H421.871C422.949 120.633 423.823 121.484 423.823 122.534V129.188C423.823 130.238 422.949 131.089 421.871 131.089C420.793 131.089 419.919 130.238 419.919 129.188V124.435H389.178C388.1 124.435 387.227 123.584 387.227 122.534Z" fill="#231815"/>
<path fill-rule="evenodd" clip-rule="evenodd" d="M382 135.271C382 134.116 382.864 133.18 383.929 133.18H426.078C427.143 133.18 428.007 134.116 428.007 135.271C428.007 136.426 427.143 137.362 426.078 137.362H383.929C382.864 137.362 382 136.426 382 135.271Z" fill="#231815"/>
<path fill-rule="evenodd" clip-rule="evenodd" d="M387.227 142.434C387.227 141.365 388.1 140.499 389.178 140.499H421.871C422.949 140.499 423.823 141.365 423.823 142.434V150.849C423.823 151.918 422.949 152.784 421.871 152.784H391.13V158.587H421.871C422.949 158.587 423.823 159.454 423.823 160.522C423.823 161.591 422.949 162.457 421.871 162.457H389.178C388.1 162.457 387.227 161.591 387.227 160.522V150.849C387.227 149.781 388.1 148.915 389.178 148.915H419.919V144.368H389.178C388.1 144.368 387.227 143.502 387.227 142.434Z" fill="#231815"/>
</svg>
