<svg width="11" height="10" viewBox="0 0 11 10" fill="none" xmlns="http://www.w3.org/2000/svg">
<path d="M8.71135 1.21261C8.88744 1.04497 9.12176 0.952289 9.36488 0.954128C9.60799 0.955968 9.84088 1.05218 10.0144 1.22246C10.1879 1.39275 10.2885 1.62379 10.295 1.86682C10.3014 2.10986 10.2131 2.34589 10.0489 2.52511L5.06135 8.76261C4.97559 8.85498 4.87208 8.92911 4.75702 8.98056C4.64195 9.03202 4.51769 9.05974 4.39167 9.06208C4.26564 9.06441 4.14044 9.04131 4.02355 8.99415C3.90666 8.94699 3.80048 8.87674 3.71135 8.78761L0.403854 5.48011C0.311746 5.39428 0.237868 5.29078 0.186628 5.17578C0.135388 5.06078 0.107836 4.93664 0.105615 4.81076C0.103394 4.68488 0.12655 4.55984 0.173701 4.44311C0.220852 4.32637 0.291033 4.22033 0.380056 4.13131C0.46908 4.04228 0.575122 3.9721 0.691857 3.92495C0.808592 3.8778 0.933629 3.85464 1.05951 3.85687C1.18539 3.85909 1.30953 3.88664 1.42453 3.93788C1.53953 3.98912 1.64303 4.063 1.72885 4.15511L4.34635 6.77136L8.6876 1.24011C8.69542 1.23048 8.70252 1.2213 8.71135 1.21261Z" fill="white"/>
</svg>
