<svg width="33" height="current" viewBox="0 0 33 36" fill="none" xmlns="http://www.w3.org/2000/svg">
<g id="&#234;&#190;&#184;&#235;&#176;&#136;&#236;&#154;&#148;&#236;&#134;&#140;_01">
<g id="Polygon 1" filter="url(#filter0_d_1197_13326)">
<path d="M14.498 3.43986C15.7357 2.72533 17.2604 2.72533 18.498 3.43986L26.6224 8.13046C27.86 8.84499 28.6224 10.1655 28.6224 11.5946V20.9758C28.6224 22.4048 27.86 23.7253 26.6224 24.4399L18.498 29.1305C17.2604 29.845 15.7357 29.845 14.498 29.1305L6.37369 24.4399C5.13609 23.7253 4.37369 22.4048 4.37369 20.9758V11.5946C4.37369 10.1655 5.13609 8.84499 6.37369 8.13046L14.498 3.43986Z" fill="#1A2A53"/>
</g>
<g id="Group">
<mask id="mask0_1197_13326" style="mask-type:alpha" maskUnits="userSpaceOnUse" x="4" y="2" width="25" height="28">
<path id="Polygon 2" d="M14.498 3.43986C15.7357 2.72533 17.2604 2.72533 18.498 3.43986L26.6224 8.13046C27.86 8.84499 28.6224 10.1655 28.6224 11.5946V20.9758C28.6224 22.4048 27.86 23.7253 26.6224 24.4399L18.498 29.1305C17.2604 29.845 15.7357 29.845 14.498 29.1305L6.37369 24.4399C5.13609 23.7253 4.37369 22.4048 4.37369 20.9758V11.5946C4.37369 10.1655 5.13609 8.84499 6.37369 8.13046L14.498 3.43986Z" fill="#1A2A53"/>
</mask>
<g mask="url(#mask0_1197_13326)">
<g id="Group 2834">
<path id="Vector" d="M17.1231 24.7861C18.561 24.7861 20.0215 24.4244 21.5308 23.6993C23.8283 22.595 25.9544 20.7826 27.8301 19.183C28.9099 18.2621 30.2331 17.9576 31.7627 18.2779C32.9431 18.525 33.8098 19.0679 33.818 19.0733C33.9927 19.1841 34.2217 19.1584 34.3673 19.0122C34.5128 18.866 34.5359 18.6385 34.4222 18.4667C33.5006 17.0705 31.6183 15.3623 29.3471 15.1435C27.5841 14.9739 25.8907 15.7 24.3138 17.3029C22.3409 19.3085 20.5032 20.099 19.3091 20.4095C18.0206 20.7444 17.1824 20.607 17.1742 20.6053C17.161 20.6031 17.1456 20.601 17.1324 20.5999C15.0793 20.4378 14.005 18.698 14.005 17.0634C14.005 15.3503 15.4078 13.9569 17.1324 13.9569C18.5165 13.9569 19.7183 14.8391 20.1236 16.1523C20.4394 17.1513 19.9665 17.7198 19.514 18.0215C18.7955 18.5005 18.1062 18.3695 18.0771 18.3641C18.0683 18.3619 18.0628 18.3614 18.0541 18.3597C17.485 18.2724 17.2824 17.9385 17.2824 17.6548C17.2824 17.2691 17.5982 16.9554 17.9865 16.9554C18.2293 16.9554 18.4259 16.7601 18.4259 16.5189C18.4259 16.2778 18.2293 16.0825 17.9865 16.0825C17.1137 16.0825 16.4036 16.7879 16.4036 17.6548C16.4036 18.3172 16.8699 19.057 17.9107 19.2206C18.0574 19.2485 19.0251 19.3985 20.0039 18.746C20.9805 18.0951 21.3303 17.0552 20.9629 15.8937C20.7179 15.0993 20.211 14.383 19.5365 13.88C18.8389 13.3595 18.0074 13.084 17.1324 13.084C14.9233 13.084 13.1262 14.8691 13.1262 17.0634C13.1262 18.1491 13.4991 19.1917 14.1769 19.9981C14.8948 20.8525 15.912 21.374 17.0434 21.4684C17.4005 21.5252 20.9552 21.9665 24.9427 17.9129C26.3246 16.5086 27.7785 15.8686 29.2626 16.0121C30.5072 16.1321 31.6254 16.7835 32.485 17.5588C32.3224 17.5119 32.1516 17.4682 31.9736 17.4301C30.1765 17.046 28.5458 17.423 27.2578 18.5207C23.5224 21.7052 19.2893 25.3147 14.1967 23.349C10.7447 22.0167 10.458 18.2364 10.6381 16.8921C10.67 16.6532 10.5014 16.4338 10.2608 16.4016C10.0197 16.3695 9.79942 16.5375 9.76701 16.7765C9.64453 17.687 9.71922 19.1672 10.2959 20.5906C10.9836 22.2884 12.2221 23.5236 13.8781 24.1625C14.9547 24.5777 16.0323 24.7861 17.1231 24.7861Z" fill="#D0D7E8"/>
<path id="Vector_2" d="M17.0291 13.9562C17.4334 13.9562 18.065 13.8711 18.701 13.4472C19.6776 12.7963 20.0275 11.7564 19.66 10.5949C19.415 9.80052 18.9081 9.08418 18.2336 8.58115C17.5361 8.06013 16.7051 7.78516 15.8301 7.78516C13.621 7.78516 11.8233 9.57029 11.8233 11.7651C11.8233 11.9414 11.8349 12.1192 11.8585 12.2927C11.8903 12.5317 12.1111 12.6997 12.3517 12.6681C12.5923 12.6364 12.7615 12.4171 12.7296 12.1781C12.7115 12.0423 12.7021 11.9032 12.7021 11.7651C12.7021 10.052 14.1055 8.65808 15.8301 8.65808C17.2142 8.65808 18.416 9.54028 18.8213 10.8535C19.1371 11.8524 18.6642 12.4209 18.2116 12.7226C17.4932 13.2017 16.8039 13.0707 16.7748 13.0647C16.766 13.0625 16.7605 13.062 16.7517 13.0603C16.1827 12.9731 15.98 12.6392 15.98 12.3555C15.98 11.9697 16.2959 11.656 16.6842 11.656C16.9269 11.656 17.1236 11.4607 17.1236 11.2196C17.1236 10.9784 16.9269 10.7831 16.6842 10.7831C15.8114 10.7831 15.1012 11.4885 15.1012 12.3555C15.1012 13.0178 15.5676 13.7576 16.6078 13.9213C16.6589 13.9316 16.8111 13.9562 17.0291 13.9562Z" fill="#D0D7E8"/>
<path id="Vector_3" d="M9.26884 17.5031C9.48689 17.5031 9.63903 17.4785 9.69011 17.4687C10.7309 17.305 11.1972 16.5647 11.1972 15.9023C11.1972 15.0354 10.4871 14.33 9.61377 14.33C9.371 14.33 9.17437 14.5253 9.17437 14.7664C9.17437 15.0076 9.371 15.2029 9.61377 15.2029C10.0021 15.2029 10.3185 15.5166 10.3185 15.9023C10.3185 16.1855 10.1158 16.5199 9.54676 16.6072C9.53797 16.6089 9.52863 16.6105 9.51985 16.6121C9.49458 16.617 8.80472 16.748 8.08631 16.269C7.63428 15.9673 7.16083 15.3993 7.4761 14.4031C7.88199 13.0872 9.08374 12.205 10.4678 12.205C12.1925 12.205 13.5958 13.5984 13.5958 15.3115C13.5958 15.5526 13.7924 15.7479 14.0352 15.7479C14.278 15.7479 14.4746 15.5526 14.4746 15.3115C14.4746 13.1172 12.6775 11.332 10.4678 11.332C9.5929 11.332 8.76188 11.607 8.06379 12.128C7.38931 12.6311 6.88236 13.3474 6.63629 14.145C6.26995 15.3038 6.61982 16.3437 7.59638 16.9946C8.23296 17.418 8.86404 17.5031 9.26884 17.5031Z" fill="#D0D7E8"/>
<path id="Vector_4" d="M34.0554 19.1393C34.1196 19.1393 34.185 19.1252 34.2465 19.0957C34.4646 18.9904 34.5557 18.7296 34.4503 18.513C34.3651 18.3379 32.3208 14.2177 28.9391 13.5761C26.3994 13.0949 24.9395 13.9684 23.3934 14.8937C22.5453 15.401 21.6687 15.9259 20.5307 16.2898C20.2995 16.3634 20.1726 16.6095 20.2467 16.8392C20.3209 17.0689 20.5686 17.1949 20.7998 17.1212C22.0356 16.7268 22.9979 16.1501 23.847 15.6416C25.3657 14.7327 26.5647 14.0147 28.7743 14.4337C31.7205 14.9924 33.6407 18.8551 33.6599 18.8938C33.7357 19.0488 33.8928 19.1393 34.0554 19.1393Z" fill="#D0D7E8"/>
</g>
</g>
</g>
</g>
<defs>
<filter id="filter0_d_1197_13326" x="0.374023" y="0.904297" width="32.248" height="34.7617" filterUnits="userSpaceOnUse" color-interpolation-filters="sRGB">
<feFlood flood-opacity="0" result="BackgroundImageFix"/>
<feColorMatrix in="SourceAlpha" type="matrix" values="0 0 0 0 0 0 0 0 0 0 0 0 0 0 0 0 0 0 127 0" result="hardAlpha"/>
<feOffset dy="2"/>
<feGaussianBlur stdDeviation="2"/>
<feComposite in2="hardAlpha" operator="out"/>
<feColorMatrix type="matrix" values="0 0 0 0 0.614118 0 0 0 0 0.658342 0 0 0 0 0.771667 0 0 0 0.8 0"/>
<feBlend mode="normal" in2="BackgroundImageFix" result="effect1_dropShadow_1197_13326"/>
<feBlend mode="normal" in="SourceGraphic" in2="effect1_dropShadow_1197_13326" result="shape"/>
</filter>
</defs>
</svg>
